<svg width="21" height="21" viewBox="0 0 21 21" fill="none" xmlns="http://www.w3.org/2000/svg">
<path d="M20.3023 11.1586C20.0409 13.7256 18.8142 16.0974 16.8705 17.7941C14.9267 19.491 12.4108 20.3863 9.83205 20.2988C7.25334 20.2113 4.80398 19.1476 2.97987 17.3228C1.15556 15.4979 0.0926162 13.0481 0.00575187 10.4694C-0.080938 7.89056 0.814957 5.37519 2.51248 3.43179C4.21001 1.48861 6.58224 0.262606 9.14923 0.00205318C9.30644 -0.0153801 9.45431 0.0797118 9.5036 0.229953C9.55289 0.380195 9.48997 0.544385 9.35304 0.623468C8.0351 1.40922 6.98847 2.57854 6.35312 3.97507C5.71776 5.37179 5.52391 6.92906 5.79748 8.43878C6.07119 9.9485 6.79924 11.3387 7.88442 12.4235C8.96955 13.5084 10.3601 14.236 11.87 14.509C13.3798 14.7822 14.9371 14.5879 16.3337 13.9521C17.7301 13.3162 18.899 12.2692 19.6843 10.951C19.7652 10.8182 19.9268 10.7588 20.0744 10.8074C20.2219 10.8561 20.3164 11 20.3024 11.1548L20.3023 11.1586Z" fill="#9C9C9C"/>
</svg>
