<svg width="24" height="23" viewBox="0 0 24 23" fill="none" xmlns="http://www.w3.org/2000/svg">
<path d="M16.4818 0.72285C16.699 0.81405 16.8553 1.00948 16.8987 1.23965L17.763 5.92556L22.4489 6.78544C22.679 6.82887 22.8745 6.98521 22.9657 7.20235C23.0569 7.41949 23.0308 7.66704 22.8962 7.86246L20.1906 11.7884L22.8962 15.71C23.0308 15.9054 23.0569 16.1529 22.9657 16.3701C22.8745 16.5872 22.679 16.7436 22.4489 16.787L17.763 17.6512L16.8987 22.3371C16.8553 22.5673 16.699 22.7627 16.4818 22.8539C16.2647 22.9451 16.0171 22.9191 15.8217 22.7844L11.9001 20.0788L7.97856 22.7844C7.78313 22.9191 7.53559 22.9451 7.31845 22.8539C7.10131 22.7627 6.94497 22.5673 6.90154 22.3371L6.03732 17.6512L1.3514 16.787C1.12123 16.7436 0.925805 16.5872 0.834606 16.3701C0.743406 16.1529 0.769463 15.9054 0.904091 15.71L3.60967 11.7884L0.904091 7.86681C0.769463 7.67138 0.743406 7.42384 0.834606 7.2067C0.925805 6.98955 1.12123 6.83321 1.3514 6.78978L6.03732 5.92556L6.90154 1.23965C6.94497 1.00948 7.10131 0.81405 7.31845 0.72285C7.53559 0.631651 7.78313 0.657708 7.97856 0.792336L11.9001 3.49792L15.8217 0.792336C16.0171 0.657708 16.2647 0.631651 16.4818 0.72285ZM7.73102 11.7884C7.73102 10.6827 8.17026 9.62223 8.95213 8.84037C9.73399 8.05851 10.7944 7.61926 11.9001 7.61926C13.0059 7.61926 14.0663 8.05851 14.8481 8.84037C15.63 9.62223 16.0693 10.6827 16.0693 11.7884C16.0693 12.8941 15.63 13.9545 14.8481 14.7364C14.0663 15.5183 13.0059 15.9575 11.9001 15.9575C10.7944 15.9575 9.73399 15.5183 8.95213 14.7364C8.17026 13.9545 7.73102 12.8941 7.73102 11.7884ZM17.459 11.7884C17.459 10.3141 16.8733 8.90018 15.8308 7.8577C14.7883 6.81522 13.3744 6.22956 11.9001 6.22956C10.4258 6.22956 9.01194 6.81522 7.96946 7.8577C6.92697 8.90018 6.34131 10.3141 6.34131 11.7884C6.34131 13.2627 6.92697 14.6766 7.96946 15.7191C9.01194 16.7615 10.4258 17.3472 11.9001 17.3472C13.3744 17.3472 14.7883 16.7615 15.8308 15.7191C16.8733 14.6766 17.459 13.2627 17.459 11.7884Z" fill="white"/>
</svg>
