<svg width="298" height="58" viewBox="0 0 298 58" fill="none" xmlns="http://www.w3.org/2000/svg">
<path d="M3.03409 46V11.0909H16.8068C19.4545 11.0909 21.7102 11.5966 23.5739 12.608C25.4375 13.608 26.858 15 27.8352 16.7841C28.8239 18.5568 29.3182 20.6023 29.3182 22.9205C29.3182 25.2386 28.8182 27.2841 27.8182 29.0568C26.8182 30.8295 25.3693 32.2102 23.4716 33.1989C21.5852 34.1875 19.3011 34.6818 16.6193 34.6818H7.84091V28.767H15.4261C16.8466 28.767 18.017 28.5227 18.9375 28.0341C19.8693 27.5341 20.5625 26.8466 21.017 25.9716C21.483 25.0852 21.7159 24.0682 21.7159 22.9205C21.7159 21.7614 21.483 20.75 21.017 19.8864C20.5625 19.0114 19.8693 18.3352 18.9375 17.858C18.0057 17.3693 16.8239 17.125 15.392 17.125H10.4148V46H3.03409ZM78.5497 46V11.0909H85.9304V26.483H86.3906L98.9531 11.0909H107.8L94.8452 26.7216L107.953 46H99.1236L89.5611 31.6477L85.9304 36.0795V46H78.5497ZM111.643 46V11.0909H135.166V17.1761H119.024V25.4943H133.956V31.5795H119.024V39.9148H135.234V46H111.643ZM141.034 46V11.0909H154.807C157.443 11.0909 159.693 11.5625 161.557 12.5057C163.432 13.4375 164.858 14.7614 165.835 16.4773C166.824 18.1818 167.318 20.1875 167.318 22.4943C167.318 24.8125 166.818 26.8068 165.818 28.4773C164.818 30.1364 163.369 31.4091 161.472 32.2955C159.585 33.1818 157.301 33.625 154.619 33.625H145.398V27.6932H153.426C154.835 27.6932 156.006 27.5 156.938 27.1136C157.869 26.7273 158.563 26.1477 159.017 25.375C159.483 24.6023 159.716 23.642 159.716 22.4943C159.716 21.3352 159.483 20.358 159.017 19.5625C158.563 18.767 157.864 18.1648 156.92 17.7557C155.989 17.3352 154.813 17.125 153.392 17.125H148.415V46H141.034ZM159.886 30.1136L168.562 46H160.415L151.926 30.1136H159.886ZM177.903 11.0909L186.341 37.6136H186.665L195.119 11.0909H203.301L191.267 46H181.756L169.705 11.0909H177.903ZM214.884 11.0909V46H207.503V11.0909H214.884ZM220.956 46V11.0909H244.479V17.1761H228.337V25.4943H243.268V31.5795H228.337V39.9148H244.547V46H220.956ZM258.205 46L248.216 11.0909H256.278L262.057 35.3466H262.347L268.722 11.0909H275.625L281.983 35.3977H282.29L288.068 11.0909H296.131L286.142 46H278.949L272.301 23.1761H272.028L265.398 46H258.205Z" fill="#9C9C9C"/>
<path d="M54.0003 21.6148C55.6694 21.6191 57.2886 22.1814 58.5979 23.2122C59.9067 24.2431 60.8301 25.6821 61.2186 27.2986H73C72.4273 20.9406 68.6856 15.2943 63.041 12.269C57.3965 9.24367 50.6039 9.24367 44.9598 12.269C39.3152 15.2943 35.5735 20.9405 35.0008 27.2986H46.7822C47.1708 25.6821 48.0942 24.243 49.403 23.2122C50.7123 22.1813 52.3314 21.619 54.0006 21.6148H54.0003Z" fill="#9C9C9C"/>
<path d="M53.9999 36.3853C52.3308 36.3826 50.7105 35.8208 49.4012 34.7894C48.0919 33.7585 47.1689 32.3185 46.7814 30.7014H35C35.5727 37.0594 39.3144 42.7057 44.959 45.731C50.6036 48.7563 57.3961 48.7563 63.0403 45.731C68.6848 42.7057 72.4266 37.0595 72.9993 30.7014H61.2178C60.8303 32.3185 59.9074 33.7585 58.598 34.7894C57.2887 35.8208 55.6685 36.3826 53.9994 36.3853H53.9999Z" fill="#9C9C9C"/>
<path d="M50.0023 29C50.0023 30.0558 50.4233 31.0686 51.1732 31.8154C51.9232 32.5622 52.9403 32.9815 54.0005 32.9815C55.0608 32.9815 56.0779 32.5622 56.8279 31.8154C57.5778 31.0686 57.9988 30.0558 57.9988 29C57.9988 27.9443 57.5778 26.9314 56.8279 26.1846C56.0779 25.4378 55.0608 25.0186 54.0005 25.0186C52.9408 25.0207 51.9248 25.4404 51.1754 26.1867C50.426 26.933 50.0044 27.9448 50.0023 29Z" fill="#9C9C9C"/>
</svg>
