<svg width="24" height="24" viewBox="0 0 24 24" fill="none" xmlns="http://www.w3.org/2000/svg">
<path d="M12.0002 7.33569C13.0544 7.33837 14.077 7.69353 14.9039 8.34457C15.7306 8.99565 16.3138 9.90447 16.5592 10.9254H24.0001C23.6384 6.90987 21.2752 3.34378 17.7102 1.43305C14.1452 -0.477683 9.85514 -0.477683 6.2904 1.43305C2.7254 3.34378 0.362186 6.90979 0.000488281 10.9254H7.44141C7.68681 9.90447 8.27005 8.99559 9.09663 8.34457C9.92359 7.69349 10.9462 7.33835 12.0004 7.33569H12.0002Z" fill="white"/>
<path d="M12 16.6644C10.9458 16.6627 9.92246 16.3079 9.09554 15.6565C8.26858 15.0054 7.68567 14.0959 7.44092 13.0746H0C0.361706 17.0901 2.72491 20.6562 6.28991 22.567C9.85491 24.4777 14.1449 24.4777 17.7097 22.567C21.2747 20.6562 23.6379 17.0902 23.9996 13.0746H16.5587C16.3139 14.0959 15.731 15.0054 14.904 15.6565C14.0771 16.3079 13.0538 16.6627 11.9996 16.6644H12Z" fill="white"/>
<path d="M9.47504 12C9.47504 12.6669 9.74094 13.3065 10.2146 13.7782C10.6883 14.2499 11.3307 14.5147 12.0003 14.5147C12.6699 14.5147 13.3123 14.2499 13.786 13.7782C14.2596 13.3065 14.5255 12.6668 14.5255 12C14.5255 11.3333 14.2596 10.6935 13.786 10.2219C13.3123 9.75022 12.6699 9.48544 12.0003 9.48544C11.331 9.48678 10.6893 9.7519 10.216 10.2232C9.74266 10.6945 9.47638 11.3336 9.47504 12Z" fill="white"/>
</svg>
